<svg width="47" height="46" viewBox="0 0 47 46" fill="none" xmlns="http://www.w3.org/2000/svg">
<circle cx="23.5083" cy="23.1272" r="22.4731" fill="white" stroke="#007AFF" stroke-width="0.71"/>
<path opacity="0.4" fill-rule="evenodd" clip-rule="evenodd" d="M15.1294 28.4861C15.1294 28.1154 15.4078 27.8148 15.7512 27.8148H21.9982C22.3416 27.8148 22.6199 28.1154 22.6199 28.4861C22.6199 28.8569 22.3416 29.1574 21.9982 29.1574H15.7512C15.4078 29.1574 15.1294 28.8569 15.1294 28.4861Z" fill="#007AFF"/>
<path fill-rule="evenodd" clip-rule="evenodd" d="M29.0038 26.5792C27.9493 26.5792 27.1385 27.4574 27.1385 28.4857C27.1385 29.5131 27.9495 30.3922 29.0038 30.3922C30.0581 30.3922 30.8691 29.5131 30.8691 28.4857C30.8691 27.4574 30.0583 26.5792 29.0038 26.5792ZM25.895 28.4857C25.895 26.6645 27.3112 25.2366 29.0038 25.2366C30.6964 25.2366 32.1126 26.6645 32.1126 28.4857C32.1126 30.3057 30.6966 31.7348 29.0038 31.7348C27.311 31.7348 25.895 30.3057 25.895 28.4857Z" fill="#007AFF"/>
<path opacity="0.4" fill-rule="evenodd" clip-rule="evenodd" d="M24.6235 17.986C24.6235 17.6153 24.9019 17.3147 25.2453 17.3147H31.4933C31.8367 17.3147 32.1151 17.6153 32.1151 17.986C32.1151 18.3568 31.8367 18.6573 31.4933 18.6573H25.2453C24.9019 18.6573 24.6235 18.3568 24.6235 17.986Z" fill="#007AFF"/>
<path fill-rule="evenodd" clip-rule="evenodd" d="M15.1294 17.9896C15.1294 16.1696 16.5454 14.7405 18.2382 14.7405C19.931 14.7405 21.347 16.1696 21.347 17.9896C21.347 19.8109 19.9308 21.2387 18.2382 21.2387C16.5456 21.2387 15.1294 19.8109 15.1294 17.9896ZM18.2382 16.0831C17.1838 16.0831 16.3729 16.9622 16.3729 17.9896C16.3729 19.0179 17.1837 19.8961 18.2382 19.8961C19.2927 19.8961 20.1034 19.0179 20.1034 17.9896C20.1034 16.9622 19.2925 16.0831 18.2382 16.0831Z" fill="#007AFF"/>
</svg>
