<svg width="101" height="27" viewBox="0 0 101 27" fill="none" xmlns="http://www.w3.org/2000/svg">
<path d="M11.4177 13.4549H14.7394L15.3256 10.1179H12.0039L11.4177 13.4549Z" fill="white"/>
<path d="M74.041 22.0918C73.4548 22.0918 72.8687 22.5826 72.771 23.1715L72.3802 25.6251C72.2825 25.9196 72.3802 26.214 72.5756 26.4103C72.771 26.6066 73.0641 26.7048 73.3571 26.7048C73.9433 26.7048 74.5295 26.214 74.6272 25.6251L75.018 23.1715C75.1157 22.877 75.018 22.5826 74.8226 22.3863C74.6272 22.2881 74.3341 22.0918 74.041 22.0918Z" fill="white"/>
<path d="M30.4684 10.1179H17.084L16.4978 13.4549H19.1356C19.6241 13.4549 20.0149 13.8475 20.0149 14.3383C20.0149 14.829 19.6241 15.2216 19.1356 15.2216H16.2047L15.7163 18.166C15.6186 18.5586 15.3255 18.8531 14.837 18.8531C14.7393 18.8531 14.7393 18.8531 14.6416 18.8531C14.1531 18.7549 13.86 18.3623 13.9577 17.8716L14.4462 15.2216H11.1245L10.6361 18.166C10.5384 18.5586 10.2453 18.8531 9.75678 18.8531C9.65909 18.8531 9.65909 18.8531 9.56139 18.8531C9.07291 18.7549 8.77982 18.3623 8.87751 17.8716L9.366 15.2216H6.72819C6.23971 15.2216 5.84892 14.829 5.84892 14.3383C5.84892 13.8475 6.23971 13.4549 6.72819 13.4549H9.65909L10.2453 10.1179H7.60746C7.11898 10.1179 6.72819 9.72535 6.72819 9.23461C6.72819 8.74388 7.11898 8.35129 7.60746 8.35129H10.5384L11.0268 5.40687C11.1245 4.91613 11.5153 4.62169 12.0038 4.71984C12.1992 4.71984 12.3946 4.91613 12.59 5.11242C12.7854 5.21057 12.8831 5.50501 12.7854 5.70131L12.2969 8.35129H15.6186L16.1071 5.40687C16.2047 4.91613 16.5955 4.62169 17.084 4.71984C17.2794 4.71984 17.4748 4.91613 17.6702 5.11242C17.7679 5.30872 17.8656 5.50501 17.7679 5.79946L17.2794 8.44943H23.532L20.0149 2.3643C19.7218 1.57912 18.6472 0.89209 17.6702 0.89209H8.48673C7.60746 0.89209 6.4351 1.57912 6.04432 2.3643L1.35489 10.3142C0.866405 11.0994 0.866405 12.3753 1.35489 13.1605L5.94662 21.2086C6.4351 21.9938 7.50976 22.6808 8.38903 22.6808H17.6702C18.5495 22.6808 19.7218 21.9938 20.1126 21.2086L24.7043 13.1605C24.802 12.9642 24.8997 12.6698 24.9974 12.3753H29.003L27.3421 21.7975C27.2444 22.0919 27.3421 22.3864 27.5375 22.5826C27.7329 22.7789 28.026 22.8771 28.3191 22.8771C28.9053 22.8771 29.4915 22.3864 29.5892 21.7975L31.4454 11.1976C31.5431 10.9031 31.4454 10.6087 31.25 10.4124C31.0546 10.3142 30.7615 10.1179 30.4684 10.1179Z" fill="white"/>
<path d="M40.4335 10.1179C39.3589 10.1179 38.4796 10.4123 37.698 11.0012L36.7211 11.7864V11.5901C36.8188 11.2957 36.7211 11.0012 36.5257 10.7068C36.3303 10.5105 36.0372 10.3142 35.7441 10.3142C35.1579 10.3142 34.6694 10.8049 34.474 11.3938L32.7155 21.6993C32.6178 21.9937 32.7155 22.2882 32.9109 22.4845C33.1063 22.6807 33.3017 22.7789 33.5948 22.7789C34.181 22.7789 34.7671 22.2882 34.8648 21.6993L36.0372 14.9271C36.1349 14.5345 36.2326 14.3382 36.6234 14.0438L38.5773 12.5716C38.9681 12.2771 39.4566 12.0808 39.8474 12.0808C40.6289 12.0808 41.2151 12.2771 41.6059 12.7679C42.1921 13.4549 42.2898 14.6327 41.9967 16.203L41.0197 21.6011C40.922 21.8956 41.0197 22.19 41.2151 22.3863C41.4105 22.5826 41.7036 22.6807 41.9967 22.6807C42.5829 22.6807 43.169 22.19 43.2667 21.6011L44.2437 16.203C44.6345 13.9456 44.4391 12.179 43.4621 11.0994C42.8759 10.5105 41.8013 10.1179 40.4335 10.1179Z" fill="white"/>
<path d="M53.134 10.1179C49.4215 10.1179 47.1745 13.3568 46.5883 16.5956C46.1976 18.6567 46.5883 20.5215 47.5653 21.6993C48.3469 22.6807 49.5192 23.1715 50.9847 23.1715C52.2547 23.1715 53.5248 22.7789 54.5018 21.9937C54.7949 21.7974 54.9902 21.4048 54.9902 21.2085C55.0879 20.9141 54.9902 20.6197 54.7949 20.4234C54.5995 20.2271 54.4041 20.1289 54.111 20.1289C53.8179 20.1289 53.5248 20.3252 53.2317 20.5215C52.8409 20.8159 52.2547 21.1104 51.3755 21.1104C50.5939 21.1104 50.0077 20.8159 49.6169 20.3252C49.0308 19.54 48.8354 18.2641 49.0308 16.7919C49.4215 14.6327 50.7893 12.4734 53.0363 12.4734C53.9156 12.4734 54.3064 12.7679 54.6972 13.0623C54.8926 13.2586 55.1856 13.4549 55.4787 13.4549C56.0649 13.4549 56.5534 12.9642 56.6511 12.3753C56.7488 11.9827 56.6511 11.6882 56.358 11.3938C55.5764 10.5105 54.2087 10.1179 53.134 10.1179Z" fill="white"/>
<path d="M60.9498 4.62168C60.3636 4.62168 59.8751 5.11241 59.7774 5.7013L56.9442 21.6993C56.8465 21.9938 56.9442 22.2882 57.1396 22.4845C57.335 22.6808 57.6281 22.7789 57.9212 22.7789C58.5074 22.7789 59.0935 22.2882 59.1912 21.6993L61.9267 5.79945C62.0244 5.505 61.9267 5.21056 61.7313 5.01427C61.5359 4.81797 61.2429 4.62168 60.9498 4.62168Z" fill="white"/>
<path d="M74.1388 11.4919C74.2364 11.1975 74.1387 10.9031 73.9434 10.7068C73.748 10.5105 73.5526 10.4123 73.2595 10.4123C72.6733 10.4123 72.0871 10.9031 71.9894 11.4919L70.8171 18.2641C70.7194 18.6567 70.6217 18.853 70.2309 19.1474L68.277 20.6196C67.8862 20.9141 67.3977 21.1104 67.0069 21.1104C66.2253 21.1104 65.6392 20.9141 65.2484 20.4233C64.6622 19.7363 64.5645 18.5585 64.8576 16.9882L65.8346 11.5901C65.9322 11.2956 65.8345 11.0012 65.6392 10.8049C65.4438 10.6086 65.1507 10.5105 64.8576 10.5105C64.2714 10.5105 63.6852 11.0012 63.5875 11.5901L62.6106 16.9882C62.2198 19.2456 62.5129 21.0122 63.3921 22.0918C64.076 22.877 65.1507 23.3678 66.5184 23.3678C67.5931 23.3678 68.4724 23.0733 69.2539 22.4844L71.2079 21.0122C72.6733 19.8345 72.9664 19.1474 73.0641 18.166L74.1388 11.4919Z" fill="white"/>
<path d="M88.2071 4.62168C87.6209 4.62168 87.0347 5.11241 86.937 5.7013L85.96 11.2957C85.7647 11.0994 85.5693 10.9031 85.3739 10.805C84.69 10.3142 84.0061 10.1179 82.9315 10.1179C79.219 10.1179 76.972 13.3568 76.3858 16.5957C75.995 18.7549 76.3858 20.6197 77.2651 21.7975C78.0466 22.6808 79.1213 23.1715 80.5867 23.1715C81.5637 23.1715 82.2476 22.9752 83.1269 22.2882L84.2015 21.503V21.7975C84.1038 22.0919 84.2015 22.3863 84.3969 22.5826C84.5923 22.7789 84.8854 22.8771 85.1785 22.8771C85.7647 22.8771 86.3508 22.3863 86.4485 21.7975L89.0863 5.79945C89.184 5.505 89.0863 5.21056 88.8909 5.01427C88.6955 4.81797 88.5002 4.62168 88.2071 4.62168ZM85.0808 16.3012L84.7877 18.166C84.69 18.4605 84.5923 18.7549 84.2015 19.0493L82.2476 20.6197C81.7591 21.0123 81.2706 21.0123 80.9775 21.0123C80.2937 21.0123 79.7075 20.816 79.3167 20.3252C78.7305 19.6382 78.5351 18.2642 78.8282 16.6938C79.219 14.5346 80.5867 12.2772 82.8338 12.2772C83.713 12.2772 84.2992 12.5716 84.69 13.0623C85.1785 13.7494 85.2762 14.9271 85.0808 16.3012Z" fill="white"/>
<path d="M99.4421 11.5901C98.6606 10.6086 97.4882 10.1179 96.2182 10.1179C94.4596 10.1179 92.7988 10.8049 91.6264 12.2771C90.6495 13.4549 89.8679 15.0253 89.5748 16.5956C89.184 18.6567 89.5748 20.5215 90.5518 21.6993C91.3333 22.6807 92.5057 23.1715 93.9711 23.1715C94.8504 23.1715 98.0744 22.6807 98.3675 21.2085C98.4652 20.9141 98.3675 20.6197 98.1721 20.4234C97.9767 20.2271 97.7813 20.1289 97.4882 20.1289C97.1951 20.1289 96.8043 20.3252 96.4136 20.4234C95.8274 20.7178 95.1435 21.0122 94.2642 21.0122C93.4827 21.0122 92.8965 20.7178 92.5057 20.3252C91.9195 19.7363 91.7241 18.6567 91.8218 17.4789H98.9537C99.7352 17.4789 100.224 16.9882 100.419 15.8104C100.712 14.1419 100.321 12.6697 99.4421 11.5901ZM98.1721 15.1234H92.408C93.1896 13.3568 94.4596 12.3753 95.9251 12.3753C96.6089 12.3753 97.1951 12.5716 97.5859 12.9642C97.9767 13.4549 98.1721 14.1419 98.1721 15.1234Z" fill="white"/>
<path d="M31.5431 3.93465C30.9569 3.93465 30.3707 4.42539 30.273 5.01427L29.8823 7.46795C29.7846 7.7624 29.8823 8.05684 30.0777 8.25313C30.273 8.44943 30.5661 8.54757 30.8592 8.54757C31.4454 8.54757 32.0316 8.05684 32.1293 7.46795L32.5201 5.01427C32.6178 4.71983 32.5201 4.42539 32.3247 4.22909C32.1293 4.13095 31.8362 3.93465 31.5431 3.93465Z" fill="white"/>
</svg>
