<svg width="149" height="39" viewBox="0 0 149 39" fill="none" xmlns="http://www.w3.org/2000/svg">
<path d="M15.7606 19.0675H20.7253L21.6014 14.0798H16.6367L15.7606 19.0675Z" fill="black"/>
<path d="M109.36 31.9766C108.484 31.9766 107.608 32.71 107.461 33.5902L106.877 37.2576C106.731 37.6977 106.877 38.1377 107.169 38.4311C107.461 38.7245 107.9 38.8712 108.338 38.8712C109.214 38.8712 110.09 38.1377 110.236 37.2576L110.82 33.5902C110.966 33.1501 110.82 32.71 110.528 32.4166C110.236 32.27 109.798 31.9766 109.36 31.9766Z" fill="black"/>
<path d="M44.2345 14.0798H24.2297L23.3535 19.0674H27.2961C28.0262 19.0674 28.6103 19.6542 28.6103 20.3877C28.6103 21.1212 28.0262 21.708 27.2961 21.708H22.9155L22.1854 26.1088C22.0393 26.6956 21.6013 27.1357 20.8712 27.1357C20.7252 27.1357 20.7252 27.1357 20.5791 27.1357C19.849 26.989 19.411 26.4022 19.557 25.6687L20.2871 21.708H15.3224L14.5923 26.1088C14.4463 26.6956 14.0082 27.1357 13.2781 27.1357C13.1321 27.1357 13.1321 27.1357 12.9861 27.1357C12.256 26.989 11.8179 26.4022 11.9639 25.6687L12.694 21.708H8.75145C8.02135 21.708 7.43726 21.1212 7.43726 20.3877C7.43726 19.6542 8.02135 19.0674 8.75145 19.0674H13.1321L14.0082 14.0798H10.0656C9.33553 14.0798 8.75145 13.493 8.75145 12.7596C8.75145 12.0261 9.33553 11.4393 10.0656 11.4393H14.4463L15.1764 7.03848C15.3224 6.30501 15.9065 5.86493 16.6366 6.01162C16.9286 6.01162 17.2207 6.30501 17.5127 6.5984C17.8047 6.74509 17.9508 7.18518 17.8047 7.47857L17.0746 11.4393H22.0393L22.7694 7.03848C22.9155 6.30501 23.4996 5.86493 24.2297 6.01162C24.5217 6.01162 24.8137 6.30501 25.1058 6.5984C25.2518 6.89179 25.3978 7.18518 25.2518 7.62526L24.5217 11.586H33.867L28.6103 2.49095C28.1722 1.31739 26.566 0.290527 25.1058 0.290527H11.3798C10.0656 0.290527 8.31339 1.31739 7.72931 2.49095L0.720308 14.3732C-0.00979652 15.5468 -0.00979652 17.4538 0.720308 18.6274L7.58329 30.6563C8.31339 31.8299 9.91962 32.8568 11.2338 32.8568H25.1058C26.42 32.8568 28.1722 31.8299 28.7563 30.6563L35.6193 18.6274C35.7653 18.334 35.9113 17.8939 36.0573 17.4538H42.0442L39.5618 31.5365C39.4158 31.9766 39.5618 32.4167 39.8539 32.7101C40.1459 33.0034 40.584 33.1501 41.022 33.1501C41.8982 33.1501 42.7743 32.4167 42.9203 31.5365L45.6947 15.6935C45.8407 15.2534 45.6947 14.8133 45.4027 14.5199C45.1106 14.3732 44.6726 14.0798 44.2345 14.0798Z" fill="black"/>
<path d="M59.1287 14.0798C57.5225 14.0798 56.2083 14.5199 55.0401 15.4001L53.5799 16.5736V16.2803C53.7259 15.8402 53.5799 15.4001 53.2879 14.96C52.9958 14.6666 52.5578 14.3732 52.1197 14.3732C51.2436 14.3732 50.5135 15.1067 50.2214 15.9869L47.5931 31.3898C47.447 31.8299 47.593 32.27 47.8851 32.5634C48.1771 32.8568 48.4692 33.0034 48.9072 33.0034C49.7834 33.0034 50.6595 32.27 50.8055 31.3898L52.5578 21.2679C52.7038 20.6811 52.8498 20.3877 53.4339 19.9476L56.3543 17.7472C56.9384 17.3071 57.6685 17.0137 58.2526 17.0137C59.4207 17.0137 60.2969 17.3071 60.8809 18.0406C61.7571 19.0675 61.9031 20.8278 61.465 23.1749L60.0048 31.2431C59.8588 31.6832 60.0048 32.1233 60.2969 32.4167C60.5889 32.7101 61.027 32.8568 61.465 32.8568C62.3412 32.8568 63.2173 32.1233 63.3633 31.2431L64.8235 23.1749C65.4076 19.8009 65.1155 17.1604 63.6553 15.5468C62.7792 14.6666 61.173 14.0798 59.1287 14.0798Z" fill="black"/>
<path d="M78.1113 14.0798C72.5626 14.0798 69.2041 18.9208 68.3279 23.7617C67.7439 26.8423 68.3279 29.6295 69.7882 31.3898C70.9563 32.8568 72.7086 33.5902 74.8989 33.5902C76.7972 33.5902 78.6954 33.0035 80.1556 31.8299C80.5937 31.5365 80.8857 30.9497 80.8857 30.6563C81.0318 30.2163 80.8857 29.7762 80.5937 29.4828C80.3017 29.1894 80.0096 29.0427 79.5716 29.0427C79.1335 29.0427 78.6954 29.3361 78.2574 29.6295C77.6733 30.0696 76.7972 30.5096 75.483 30.5096C74.3148 30.5096 73.4387 30.0696 72.8546 29.3361C71.9785 28.1625 71.6864 26.2555 71.9785 24.0551C72.5626 20.8278 74.6068 17.6005 77.9653 17.6005C79.2795 17.6005 79.8636 18.0406 80.4477 18.4807C80.7397 18.7741 81.1778 19.0675 81.6158 19.0675C82.492 19.0675 83.2221 18.334 83.3681 17.4538C83.5141 16.867 83.3681 16.4269 82.93 15.9869C81.7619 14.6666 79.7176 14.0798 78.1113 14.0798Z" fill="black"/>
<path d="M89.793 5.86499C88.9169 5.86499 88.1868 6.59846 88.0408 7.47863L83.8062 31.3899C83.6602 31.83 83.8062 32.27 84.0982 32.5634C84.3903 32.8568 84.8283 33.0035 85.2664 33.0035C86.1425 33.0035 87.0186 32.27 87.1647 31.3899L91.2533 7.62533C91.3993 7.18524 91.2533 6.74516 90.9612 6.45177C90.6692 6.15838 90.2311 5.86499 89.793 5.86499Z" fill="black"/>
<path d="M109.506 16.1335C109.652 15.6935 109.506 15.2534 109.214 14.96C108.922 14.6666 108.63 14.5199 108.192 14.5199C107.316 14.5199 106.439 15.2534 106.293 16.1335L104.541 26.2555C104.395 26.8423 104.249 27.1356 103.665 27.5757L100.745 29.7761C100.161 30.2162 99.4304 30.5096 98.8463 30.5096C97.6782 30.5096 96.802 30.2162 96.2179 29.4828C95.3418 28.4559 95.1958 26.6956 95.6339 24.3484L97.0941 16.2802C97.2401 15.8401 97.0941 15.4001 96.802 15.1067C96.51 14.8133 96.0719 14.6666 95.6339 14.6666C94.7577 14.6666 93.8816 15.4001 93.7356 16.2802L92.2754 24.3484C91.6913 27.7224 92.1294 30.3629 93.4435 31.9766C94.4657 33.1501 96.0719 33.8836 98.1162 33.8836C99.7224 33.8836 101.037 33.4435 102.205 32.5633L105.125 30.3629C107.316 28.6026 107.754 27.5757 107.9 26.1088L109.506 16.1335Z" fill="black"/>
<path d="M130.533 5.86499C129.657 5.86499 128.781 6.59846 128.635 7.47863L127.174 15.8402C126.882 15.5468 126.59 15.2535 126.298 15.1068C125.276 14.3733 124.254 14.0799 122.648 14.0799C117.099 14.0799 113.74 18.9208 112.864 23.7617C112.28 26.989 112.864 29.7762 114.179 31.5366C115.347 32.8568 116.953 33.5903 119.143 33.5903C120.603 33.5903 121.626 33.2969 122.94 32.27L124.546 31.0965V31.5366C124.4 31.9766 124.546 32.4167 124.838 32.7101C125.13 33.0035 125.568 33.1502 126.006 33.1502C126.882 33.1502 127.758 32.4167 127.904 31.5366L131.847 7.62533C131.993 7.18524 131.847 6.74516 131.555 6.45177C131.263 6.15838 130.971 5.86499 130.533 5.86499ZM125.86 23.3217L125.422 26.1089C125.276 26.5489 125.13 26.989 124.546 27.4291L121.626 29.7762C120.895 30.363 120.165 30.363 119.727 30.363C118.705 30.363 117.829 30.0696 117.245 29.3361C116.369 28.3093 116.077 26.2556 116.515 23.9084C117.099 20.6812 119.143 17.3072 122.502 17.3072C123.816 17.3072 124.692 17.7473 125.276 18.4807C126.006 19.5076 126.152 21.2679 125.86 23.3217Z" fill="black"/>
<path d="M147.325 16.2803C146.157 14.8133 144.405 14.0798 142.507 14.0798C139.878 14.0798 137.396 15.1067 135.644 17.3071C134.183 19.0675 133.015 21.4146 132.577 23.7617C131.993 26.8423 132.577 29.6295 134.037 31.3898C135.205 32.8568 136.958 33.5902 139.148 33.5902C140.462 33.5902 145.281 32.8568 145.719 30.6563C145.865 30.2163 145.719 29.7762 145.427 29.4828C145.135 29.1894 144.843 29.0427 144.405 29.0427C143.967 29.0427 143.383 29.3361 142.799 29.4828C141.922 29.9229 140.9 30.3629 139.586 30.3629C138.418 30.3629 137.542 29.9229 136.958 29.3361C136.082 28.4559 135.79 26.8423 135.936 25.0819H146.595C147.763 25.0819 148.493 24.3485 148.785 22.5881C149.223 20.0943 148.639 17.8939 147.325 16.2803ZM145.427 21.5613H136.812C137.98 18.9208 139.878 17.4538 142.068 17.4538C143.091 17.4538 143.967 17.7472 144.551 18.334C145.135 19.0675 145.427 20.0943 145.427 21.5613Z" fill="black"/>
<path d="M45.8407 4.83813C44.9646 4.83813 44.0885 5.57161 43.9425 6.45178L43.3584 10.1191C43.2124 10.5592 43.3584 10.9993 43.6504 11.2927C43.9425 11.5861 44.3805 11.7328 44.8186 11.7328C45.6947 11.7328 46.5708 10.9993 46.7168 10.1191L47.3009 6.45178C47.447 6.01169 47.3009 5.57161 47.0089 5.27822C46.7168 5.13152 46.2788 4.83813 45.8407 4.83813Z" fill="black"/>
</svg>